<svg height="100%" viewBox="0 0 26 23" fill="none" xmlns="http://www.w3.org/2000/svg">
<path d="M25.8209 5.83188V19.8944C25.8209 21.1883 24.7711 22.2381 23.4772 22.2381H3.16467C1.87073 22.2381 0.820923 21.1883 0.820923 19.8944V5.83188C0.820923 4.53793 1.87073 3.48813 3.16467 3.48813H7.46155L8.06213 1.88168C8.40393 0.968597 9.27795 0.363129 10.2545 0.363129H16.3824C17.359 0.363129 18.233 0.968597 18.5748 1.88168L19.1803 3.48813H23.4772C24.7711 3.48813 25.8209 4.53793 25.8209 5.83188ZM19.1803 12.8631C19.1803 9.63071 16.5533 7.00375 13.3209 7.00375C10.0885 7.00375 7.46155 9.63071 7.46155 12.8631C7.46155 16.0956 10.0885 18.7225 13.3209 18.7225C16.5533 18.7225 19.1803 16.0956 19.1803 12.8631ZM17.6178 12.8631C17.6178 15.2313 15.6891 17.16 13.3209 17.16C10.9528 17.16 9.02405 15.2313 9.02405 12.8631C9.02405 10.495 10.9528 8.56625 13.3209 8.56625C15.6891 8.56625 17.6178 10.495 17.6178 12.8631Z" fill="currentColor"/>
</svg>
