<svg height="100%" viewBox="0 0 10 26" fill="none" xmlns="http://www.w3.org/2000/svg">
<path d="M1.46606 20.8107H2.44263V13.7571H1.46606C0.926709 13.7571 0.489502 13.3199 0.489502 12.7805V10.448C0.489502 9.90861 0.926709 9.47141 1.46606 9.47141H6.93481C7.47417 9.47141 7.91138 9.90861 7.91138 10.448V20.8107H8.88794C9.42729 20.8107 9.8645 21.2479 9.8645 21.7873V24.1198C9.8645 24.6592 9.42729 25.0964 8.88794 25.0964H1.46606C0.926709 25.0964 0.489502 24.6592 0.489502 24.1198V21.7873C0.489502 21.2479 0.926709 20.8107 1.46606 20.8107ZM5.177 0.096405C3.23535 0.096405 1.66138 1.67038 1.66138 3.61203C1.66138 5.55368 3.23535 7.12766 5.177 7.12766C7.11865 7.12766 8.69263 5.55368 8.69263 3.61203C8.69263 1.67038 7.1186 0.096405 5.177 0.096405Z" fill="currentColor"/>
</svg>
