<svg height="100%" viewBox="0 0 23 23" fill="none" xmlns="http://www.w3.org/2000/svg">
<path d="M20.6774 9.37595H13.6461V2.3447C13.6461 1.4819 12.9464 0.782196 12.0836 0.782196H10.5211C9.65833 0.782196 8.95862 1.4819 8.95862 2.3447V9.37595H1.92737C1.06458 9.37595 0.364868 10.0757 0.364868 10.9384V12.5009C0.364868 13.3637 1.06458 14.0634 1.92737 14.0634H8.95862V21.0947C8.95862 21.9575 9.65833 22.6572 10.5211 22.6572H12.0836C12.9464 22.6572 13.6461 21.9575 13.6461 21.0947V14.0634H20.6774C21.5402 14.0634 22.2399 13.3637 22.2399 12.5009V10.9384C22.2399 10.0757 21.5402 9.37595 20.6774 9.37595Z" fill="currentColor"/>
</svg>
