<svg height="100%" viewBox="0 0 23 26" fill="none" xmlns="http://www.w3.org/2000/svg">
<path d="M21.8652 1.61887H16.0059L15.5469 0.705789C15.4496 0.510581 15.2999 0.346376 15.1144 0.231647C14.929 0.116919 14.7152 0.0562181 14.4971 0.0563745H8.91602C8.69843 0.0555381 8.485 0.116012 8.3002 0.230868C8.11539 0.345725 7.96668 0.510317 7.87109 0.705789L7.41211 1.61887H1.55273C1.34553 1.61887 1.14682 1.70118 1.00031 1.8477C0.853794 1.99421 0.771484 2.19292 0.771484 2.40012L0.771484 3.96262C0.771484 4.16982 0.853794 4.36854 1.00031 4.51505C1.14682 4.66156 1.34553 4.74387 1.55273 4.74387H21.8652C22.0724 4.74387 22.2711 4.66156 22.4177 4.51505C22.5642 4.36854 22.6465 4.16982 22.6465 3.96262V2.40012C22.6465 2.19292 22.5642 1.99421 22.4177 1.8477C22.2711 1.70118 22.0724 1.61887 21.8652 1.61887ZM3.36914 22.8591C3.4064 23.4541 3.66902 24.0126 4.10354 24.4208C4.53806 24.829 5.11182 25.0563 5.70801 25.0564H17.71C18.3062 25.0563 18.8799 24.829 19.3144 24.4208C19.7489 24.0126 20.0116 23.4541 20.0488 22.8591L21.084 6.30637H2.33398L3.36914 22.8591Z" fill="currentColor"/>
</svg>
